<svg version="1.1" xmlns="http://www.w3.org/2000/svg" style="display: block;" viewBox="0 0 2048 2048" width="1024" height="1024" preserveAspectRatio="none">
<path transform="translate(0,0)" fill="rgb(0,0,0)" d="M 1006.62 550.42 C 1022.13 549.369 1039.24 550.443 1054.92 551.069 C 1060.06 564.458 1064.34 581.998 1068.68 596.215 C 1083.35 599.63 1098.72 604.826 1113.91 608.42 C 1125.08 597.156 1135.86 585.559 1148.52 576.039 C 1167.87 586.187 1182.29 595.668 1200.49 607.453 C 1197.86 625.543 1194.55 634.963 1189.14 652.561 C 1198.58 662.658 1210.14 673.648 1220.04 683.514 C 1234.91 679.795 1249.82 676.274 1264.77 672.954 L 1271.95 681.65 L 1198.14 724.846 C 1166.89 688.428 1146.42 666.856 1099.57 648.817 C 1047.47 628.733 989.502 630.293 938.554 653.151 C 884.459 677.637 845.971 718.656 825.294 774.159 C 806.087 826.514 808.761 884.396 832.713 934.757 C 856.265 985.241 898.755 1024.41 950.982 1043.8 C 1004.23 1063.56 1063.19 1061.13 1114.63 1037.06 C 1165.13 1012.71 1204.08 969.542 1223.13 916.818 C 1243.64 859.647 1237.23 802.084 1211.8 747.868 C 1236.11 733.682 1260.92 717.391 1285.38 703.947 C 1289.74 710.8 1292.79 717.661 1296.24 724.983 C 1289.52 732.435 1282.6 739.707 1275.49 746.79 C 1270.3 751.327 1266.97 754.76 1262.23 759.778 C 1266.47 774.507 1271.54 788.833 1276.53 803.316 C 1287.63 807.363 1308.33 811.515 1320.75 814.618 C 1320.94 835.468 1321.6 858.333 1321 879.032 C 1268.31 891.325 1280.05 880.449 1263.54 930.947 C 1274.39 941.943 1286.69 953.865 1296 966.043 C 1285.21 985.889 1277.79 1001.12 1265.89 1021.49 C 1260.16 1020.91 1237.97 1015.06 1232.89 1012.16 C 1215.86 1002.44 1215.62 1013.75 1204.48 1024.82 C 1198.97 1030.3 1194.58 1035.2 1189.33 1040.28 C 1193.51 1055.25 1197.66 1071.11 1202.67 1085.74 C 1184.41 1095.56 1163.62 1109.39 1144.54 1116.94 C 1134.2 1106.77 1123.5 1095.05 1113.89 1084.19 C 1100.28 1087.12 1080.25 1092.68 1067.55 1098 C 1064.13 1113.66 1061.46 1126.8 1056.9 1142.18 C 1036.73 1142.4 1012.12 1142.61 992.156 1141.38 C 990.546 1134.84 982.93 1100.84 979.795 1097.55 C 973.03 1090.45 945.157 1086.67 934.133 1087.19 C 923.279 1093.73 911.137 1107.67 902.341 1117.21 C 881.257 1107.63 865.224 1097.96 845.967 1085.46 C 850.474 1071.14 854.619 1055.01 858.684 1040.43 C 852.927 1032.93 836.959 1014.42 830.455 1008.13 C 814.165 1011.87 798.635 1017.27 782.507 1021.73 C 771.17 1004.11 760.897 985.826 751.743 966.979 C 761.656 956.647 777.146 942.193 785.404 931.321 C 781.363 916.598 778.422 905.714 775.612 890.763 C 758.852 886.316 745.243 883.068 728.253 879.529 C 726.751 850.933 726.548 843.146 728.585 814.727 C 743.719 810.613 758.099 806.666 773.419 803.36 C 776.364 789.729 781.632 776.125 785.261 762.337 C 777.053 750.601 761.671 735.89 751.051 726.752 C 756.859 713.402 774.741 682.655 784.251 672.281 C 798.408 673.637 814.995 680.235 828.552 685.171 C 839.742 673.879 848.305 664.19 860.123 653.029 C 856.308 638.945 850.657 620.61 847.867 606.667 C 864.792 597.626 883.724 585.366 901.035 575.629 C 911.676 584.058 924.265 598.307 935.097 608.199 C 950.766 603.615 966.504 599.274 982.306 595.175 C 983.385 586.539 990.067 561.28 992.805 552.469 C 997.338 551.52 1002.02 551.015 1006.62 550.42 z"/>
<path transform="translate(0,0)" fill="rgb(7,121,182)" d="M 1238.27 606.991 C 1248.64 610.736 1256.96 614.993 1266.84 619.822 C 1373 671.708 1463.61 761.501 1501.97 874.814 C 1516.83 918.696 1517.59 955.511 1517.65 1001.01 C 1517.67 1021.6 1518.56 1040.13 1515.36 1060.77 C 1512.54 1079.8 1506.8 1098.29 1498.34 1115.57 C 1487.67 1137.32 1472.1 1156.28 1452.83 1170.96 C 1431.23 1187.64 1397.84 1205.5 1373.31 1219.03 C 1341.94 1236.24 1310.71 1253.7 1279.6 1271.38 L 1175.66 1331.32 C 1146 1348.76 1113.29 1370.93 1081.27 1381.47 C 1001.43 1407.76 946.807 1374.68 880.261 1335.84 C 846.716 1316.26 811.869 1296.81 777.177 1279.13 C 787.955 1280.49 813.483 1283.64 822.352 1283.06 C 866.575 1279.68 885.736 1283.55 922.043 1308.56 C 963.396 1337.05 1029.67 1364.68 1077.58 1335.2 C 1149.78 1290.8 1206.49 1205.07 1248.5 1133.08 C 1266.91 1101.53 1277.14 1063.13 1293.5 1030.37 C 1309.61 997.07 1324.2 969.803 1335.18 934.978 C 1335.26 960.424 1331.25 984.898 1326.38 1009.64 C 1310.6 1089.77 1284.98 1144.94 1239.13 1211.45 C 1218.4 1239.51 1200.61 1257.48 1175.74 1282.38 C 1196.73 1269.22 1245.39 1246.61 1259.29 1227.36 C 1324.99 1136.38 1367.65 1023.16 1359.59 909.787 C 1356.3 863.545 1345.66 821.067 1340.18 776.578 C 1372.64 855.99 1393.83 908.614 1391.11 996.386 C 1389.97 1033.27 1390.26 1055.45 1381.31 1093.47 C 1373.4 1127.11 1364.09 1149.56 1353.32 1181.14 C 1390.2 1158.55 1417.96 1151.04 1447.79 1115.76 C 1484.61 1072.22 1477.16 1011.92 1472.89 958.626 C 1468.09 898.854 1450.83 824.377 1417.22 774.257 C 1403.04 753.108 1366.59 716.566 1346.46 699.727 C 1407.8 787.148 1441.73 874.21 1446.7 981.693 C 1449.18 1035.37 1454.44 1087.48 1402.18 1120.25 C 1412.87 1082.49 1418.79 1043.54 1419.81 1004.31 C 1423.03 913.877 1394.03 814.721 1344.94 739.055 C 1321.86 703.469 1291.33 667.633 1265.17 633.991 C 1258.34 625.198 1246.29 615.635 1238.27 606.991 z"/>
<path transform="translate(0,0)" fill="rgb(7,121,182)" d="M 1007.28 333.397 C 1024.43 330.067 1068.39 334.771 1083.96 341.569 C 1139.22 365.702 1193.54 399.058 1245.9 429.258 C 1219.98 428.143 1166.45 430.221 1146.79 420.987 C 1102.53 400.185 1050.04 357.506 996.097 375.159 C 923.309 398.977 859.028 483.919 820.34 547.181 C 789.275 597.976 765.372 655.408 734.729 706.951 C 727.318 719.331 722.643 737.298 714.889 750.894 L 713.992 752.443 C 717.618 728.119 718.971 711.895 724.389 687.353 C 741.02 615.242 774.498 548.097 822.079 491.417 C 838.547 471.638 855.531 454.843 873.055 436.394 C 854.492 449.089 820.939 462.288 806.002 475.778 C 766.932 511.063 737.655 570.611 718.32 618.028 C 682.248 706.488 682.217 798.386 705.463 889.934 C 709.069 904.134 710.273 920.902 713.617 935.808 C 701.05 909.969 689.967 888.01 680.512 860.885 C 651.773 778.444 649.441 695.88 669.895 611.227 C 674.426 592.474 683.791 559.288 692.312 541.92 C 586.27 591.765 565.949 629.706 574.719 744.756 C 579.578 801.954 595.242 873.83 623.913 924.189 C 633.87 941.678 651.315 961.557 665.18 976.507 C 678.499 990.868 695.257 1002.26 709.721 1015.7 C 701.402 1002.79 689.623 987.494 680.57 973.931 C 660.527 943.481 644.044 910.832 631.443 876.626 C 617.205 837.664 607.513 789.73 602.986 748.57 C 597.329 697.141 595.723 631.945 644.343 600.193 C 637.158 628.056 632.496 656.509 630.412 685.208 C 623.409 786.753 650.665 887.714 707.818 971.94 C 738.969 1017.57 779.106 1053.96 817.784 1092.79 C 826.12 1101.16 835.865 1106.32 843.679 1115.92 C 824.935 1106.99 803.615 1099.59 784.729 1090.35 C 745.472 1071.13 709.393 1048.19 675.449 1020.7 C 599.462 959.166 542.213 873.087 531.484 774.422 C 529.45 755.716 530.215 735.209 530.193 716.56 C 529.866 666.27 533.223 615.788 568.046 575.979 C 601.181 538.1 648.357 515.372 691.646 491.463 L 798.035 432.117 C 848.433 403.835 899.718 372.857 951.45 347.062 C 966.693 339.461 990.34 335.079 1007.28 333.397 z"/>
<path transform="translate(0,0)" fill="rgb(7,121,182)" d="M 529.264 876.628 C 531.78 879.165 543.576 900.199 546.881 905.614 C 555.518 919.762 566.99 937.866 571.472 953.715 C 572.282 956.58 571.179 969.12 571.342 973.408 C 572.438 1010.98 569.232 1044.52 580.793 1081.23 C 599.492 1140.61 657.464 1158.39 709.734 1178.61 C 802.509 1214.5 905.403 1220.79 1001.6 1194.96 C 1028.69 1188.49 1053.95 1175.36 1080.14 1166.67 C 1104.01 1158.75 1128.36 1151.61 1152.33 1143.71 C 1142.19 1149.24 1130.26 1158.23 1119.99 1164.74 C 1056.11 1212.29 980.982 1242.46 901.953 1252.32 C 843.413 1259.41 770.561 1257.89 714.264 1237.9 C 697.656 1232.01 674.514 1217.74 658.445 1209.22 C 636.835 1197.78 615.834 1185.73 596.717 1170.76 C 531.46 1119.66 528.108 1061.34 530.502 984.321 C 530.628 963.154 530.759 941.731 530.103 920.571 C 529.68 906.919 531.12 889.91 529.264 876.628 z"/>
<path transform="translate(0,0)" fill="rgb(4,161,233)" d="M 1188.57 452.43 C 1191.34 451.864 1200.94 451.811 1204.47 451.797 C 1237.19 451.585 1269.75 456.293 1301.07 465.764 C 1310.49 468.682 1324.21 473.376 1333.01 478.067 C 1395.35 511.29 1482.74 550.09 1507.27 621.869 C 1520.88 661.692 1518.97 717.32 1518.97 757.77 L 1519.05 842.572 C 1512.85 832.343 1508.22 819.909 1502.55 808.699 C 1495.22 794.196 1483.1 776.481 1477.22 761.958 C 1475.63 758.023 1476.41 735.325 1476.54 729.602 C 1477.47 687.726 1477.23 643.585 1451.25 608.031 C 1436.73 587.948 1418.79 574.684 1397.2 562.65 C 1291.84 503.931 1183.21 481.318 1063.65 504.81 C 1037.6 509.93 1014.73 519.996 989.65 526.488 C 967.569 532.203 945.119 535.956 922.803 542.287 C 934.562 535.385 946.399 527.516 958.406 520.555 C 1036.85 475.077 1098.31 458.726 1188.57 452.43 z"/>
<path transform="translate(0,0)" fill="rgb(7,121,182)" d="M 1027.31 400.4 C 1059.85 401.606 1083.57 418.376 1111.31 434.177 C 1100.85 435.928 1087 439.831 1076.33 442.559 C 992.025 464.124 931.404 501.223 866.783 557.941 C 855.195 568.869 833.523 590.192 821.367 598.233 C 846.841 548.329 879.089 502.184 917.196 461.108 C 945.827 429.857 983.687 402.336 1027.31 400.4 z"/>
<path transform="translate(0,0)" fill="rgb(65,202,36)" d="M 1007.87 912.859 C 973.877 926.909 945.277 931.604 908.737 926.038 C 896.709 924.891 852.924 909.287 848.086 898.289 C 835.101 868.768 839.613 817.103 849.278 786.541 C 852.105 777.599 860.036 756.081 866.206 752.333 C 868.902 754.904 871.756 770.633 872.633 774.94 C 886.977 845.354 936.413 883.084 1003.2 901.193 L 1022.38 905.636 C 1017.59 908.038 1012.7 910.58 1007.87 912.859 z"/>
<path transform="translate(0,0)" fill="rgb(72,186,51)" d="M 1003.2 901.193 L 1022.38 905.636 C 1017.59 908.038 1012.7 910.58 1007.87 912.859 C 1007.13 907.32 1007.15 904.843 1003.2 901.193 z"/>
<path transform="translate(0,0)" fill="rgb(7,121,182)" d="M 1035.73 1242.06 C 1056.86 1243.19 1106.92 1254.43 1128.92 1259.36 C 1095.67 1294.92 1066.81 1325.33 1014.74 1319.85 C 977.9 1313.16 951.999 1292.2 918.084 1277.19 C 970.658 1267.69 986.69 1260.6 1035.73 1242.06 z"/>
<path transform="translate(0,0)" fill="rgb(4,161,233)" d="M 600.486 986.243 C 607.791 989.778 641.161 1026.16 651.657 1035.49 C 661.298 1046.29 693.704 1063.17 699.004 1075.56 C 709.28 1099.59 714.283 1132.47 725.073 1156.71 L 725.663 1158.02 C 685.594 1137.11 632.988 1126.77 612.064 1080.69 C 599.581 1053.2 598.807 1016.36 600.486 986.243 z"/>
<path transform="translate(0,0)" fill="rgb(7,121,182)" d="M 734.656 1095.11 C 749.65 1099.11 785.672 1117.99 803.453 1125.41 C 872.563 1154.25 934.425 1165.84 1008.78 1168.86 C 1002.57 1169.92 996.375 1171.04 990.192 1172.24 C 972.558 1175.41 954.623 1179.36 936.959 1182.07 C 881.121 1190.63 808.184 1184.91 754.628 1167.04 C 748.234 1140.9 741.986 1120.64 734.656 1095.11 z"/>
<path transform="translate(0,0)" fill="rgb(4,161,233)" d="M 1327.95 558.227 C 1355.05 567.376 1399.63 594.172 1419.65 614.768 C 1449.14 645.117 1448.12 685.874 1446.94 725.761 C 1440.69 722.38 1414.76 693.881 1406.94 686.965 C 1388.31 670.486 1368.73 653.878 1347.6 640.613 C 1341.49 618.547 1332.26 580.393 1327.95 558.227 z"/>
<path transform="translate(0,0)" fill="rgb(4,161,233)" d="M 1143.04 522.39 C 1189.37 519.856 1252.04 529.732 1295.53 546.019 C 1301.9 567.458 1307.92 594.177 1314.28 616.725 C 1301.11 609.134 1278.02 597.054 1264.27 590.697 C 1261.69 589.875 1251.56 584.994 1248.59 583.657 C 1238.67 579.127 1228.59 574.993 1218.34 571.266 C 1172.53 554.67 1111.96 537.293 1064.06 528.968 C 1090.43 526.512 1116.81 524.864 1143.04 522.39 z"/>
<path transform="translate(0,0)" fill="rgb(65,202,36)" d="M 1070.77 809.452 C 1138.23 829.745 1175.9 884.344 1175.2 954.057 C 1160.19 973.889 1151.27 981.802 1132.33 996.856 C 1122.19 1005.07 1106.43 1012.25 1094.49 1017.61 C 1126.58 964.241 1132.17 898.603 1097.03 845.116 C 1089.18 833.157 1077.68 821.608 1070.77 809.452 z"/>
<path transform="translate(0,0)" fill="rgb(65,202,36)" d="M 1094.53 771.335 C 1136.33 769.63 1158.06 778.299 1192.76 800.834 C 1200.87 808.544 1205.98 811.847 1207.76 823.939 C 1211.96 852.397 1209.02 892.722 1192.6 916.916 C 1190.73 912.188 1188.39 904.366 1186.95 899.478 C 1168.91 838.496 1114.86 800.197 1054.05 789.107 C 1048.58 788.109 1044.66 788.871 1038.84 787.044 L 1038.71 786.081 C 1046.39 778.577 1083.7 773.102 1094.53 771.335 z"/>
<path transform="translate(0,0)" fill="rgb(30,133,18)" d="M 1083.02 852.845 C 1083.24 853.074 1083.46 853.302 1083.68 853.531 C 1116.33 906.083 1100.22 989.959 1060.44 1027.69 C 1027.97 1032.25 1015.76 1030.91 984.302 1026.66 L 957.762 1020.69 C 975.01 1013.71 995.323 1005.77 1010.74 995.315 C 1045.35 971.827 1068.33 935.957 1076.87 895.128 C 1079.67 881.736 1080.02 866.874 1082.8 853.826 L 1083.02 852.845 z"/>
<path transform="translate(0,0)" fill="rgb(65,202,36)" d="M 993.369 794.851 C 1005.38 761.678 1032.39 732.014 1063.13 715.36 C 1078.57 706.999 1118.56 692.22 1134.81 698.647 C 1163.72 710.085 1184.85 756.402 1196.98 782.638 C 1190.03 776.577 1185.6 774.072 1177.73 769.481 C 1134.56 749.565 1099.25 745.466 1053.05 761.661 C 1039.66 766.355 1017.82 777.245 1006.9 786.435 C 1005.95 786.764 995.136 793.737 993.369 794.851 z"/>
<path transform="translate(0,0)" fill="rgb(30,133,18)" d="M 1058.62 896.888 C 1059.28 897.516 1059.57 897.551 1059.35 898.445 C 1046.42 951.105 990.193 1001.34 935.227 1002.27 C 917.019 1002.58 895.27 978.289 885.221 967.24 C 875.05 956.301 866.557 943.914 860.017 930.485 C 910.62 957.087 976.709 953.097 1024.69 922.478 C 1036.35 915.04 1047.25 905.041 1058.62 896.888 z"/>
<path transform="translate(0,0)" fill="rgb(65,202,36)" d="M 961.336 672.167 C 962.97 672.207 964.289 672.359 965.912 672.516 C 967.761 677.145 960.515 686.405 957.913 691.308 C 951.969 702.535 947.315 714.397 944.037 726.669 C 929.922 780.57 946.261 828.257 973.362 874.702 C 961.527 869.315 956.651 865.558 946.136 857.555 C 897.269 814.424 892.921 784.891 888.273 722.165 C 912.461 696.731 929.85 685.834 961.336 672.167 z"/>
<path transform="translate(0,0)" fill="rgb(30,133,18)" d="M 1016.52 661.264 C 1049.01 660.171 1073.84 665.472 1103.92 679.081 C 1099.27 680.467 1094.64 681.925 1090.03 683.453 C 1036.32 701.164 1011.11 720.752 985.398 771.676 C 982.024 778.887 979.089 786.295 976.607 793.859 C 974.406 800.7 968.724 827.981 965.555 830.85 C 966.177 824.485 964.656 818.392 963.512 812.137 C 955.403 767.78 959.586 720.827 986.191 683.133 C 994.598 671.221 1001.95 663.847 1016.52 661.264 z"/>
<path transform="translate(0,0)" fill="rgb(7,121,182)" d="M 1236.94 1091.76 C 1237.83 1092.73 1238.1 1092.7 1237.73 1093.78 C 1226.55 1126.93 1174.61 1211.76 1150.56 1233.46 C 1136.49 1233.05 1105.12 1226.85 1090.09 1224.24 L 1073.24 1222.44 C 1121.65 1203.62 1203.19 1131.01 1236.94 1091.76 z"/>
</svg>