<svg version="1.1" xmlns="http://www.w3.org/2000/svg" viewBox="0 0 2048 2048" width="1024" height="1024" preserveAspectRatio="xMidYMid meet">
  <g transform="translate(-565 -309) scale(1.55)">
    <path transform="translate(0,0)" fill="rgb(233,248,252)" d="M 992.82 552.138 C 1012.83 548.787 1035 550.344 1055.23 551.289 C 1060.48 565.848 1064.2 581.188 1068.39 596.145 C 1083.44 600.272 1098.46 604.483 1113.46 608.78 C 1124.39 597.618 1136.05 585.204 1148.44 575.829 C 1167.18 585.896 1183.11 596.004 1200.79 607.773 C 1198.44 622.28 1193.74 639.329 1189.53 653.564 C 1199.44 663.789 1209.58 673.611 1219.6 683.708 C 1234.33 680.75 1249.68 676.238 1264.21 672.192 C 1266.83 675.299 1269.52 678.951 1272.02 682.201 C 1248.95 696.118 1219.24 711.447 1197.51 725.745 C 1202.42 732.817 1206.89 740.183 1210.9 747.801 C 1234.39 734.959 1261.84 717.72 1285.44 703.973 C 1289.01 710.852 1292.74 717.735 1296.39 724.579 C 1290.13 733.962 1271.22 751.558 1262.22 760.27 C 1267.22 774.643 1270.9 789.571 1276.07 803.693 C 1287.64 807.426 1307.69 811.022 1321.11 814.613 C 1321.14 836.145 1321.44 857.675 1322 879.2 C 1269.07 892.235 1278.62 879.084 1263.49 931.103 C 1272.89 940.563 1288.35 955.678 1295.94 966.011 C 1291.07 981.25 1274.49 1007.82 1265.11 1021.79 C 1254.48 1020.37 1229.12 1011.86 1218.75 1007.55 C 1209.1 1021.35 1201.41 1028.2 1189.4 1040.03 C 1193.24 1055.35 1198.44 1070.43 1202.29 1086.01 C 1182.72 1098.13 1166.06 1107.03 1145.68 1117.63 C 1136.69 1111.26 1121.6 1093.22 1112.72 1084.1 C 1099.34 1088.63 1079.3 1093.54 1067.81 1098.21 L 1057.2 1142.38 C 1034.9 1141.92 1015.67 1143.08 991.95 1142.08 C 988.281 1127.09 984.083 1112.27 980.441 1097.14 C 930.864 1081.8 937.033 1081.2 902.657 1117.8 C 881.785 1108.85 864.365 1098.4 846.03 1085.15 C 849.64 1070.41 854.41 1055.14 858.743 1040.52 L 830.419 1008.17 C 815.514 1011.81 797.749 1017.5 782.926 1021.87 C 773.731 1008.18 757.712 981.856 751.662 967.07 C 759.092 959.372 779.374 939.335 784.97 931.706 C 781.506 916.584 777.922 907.914 775.218 891.741 C 765.254 887.718 739.27 881.669 728.4 880.11 C 725.617 853.039 726.479 841.538 728.211 814.619 C 742.731 810.896 758.796 806.393 773.325 803.266 C 775.018 793.875 781.98 772.75 785.052 762.837 C 777.562 751.462 761.251 736.135 751.043 726.379 C 755.974 716.477 776.725 678.418 784.206 672.862 C 795.877 673.033 816.918 681.23 829.29 685.116 C 839.43 672.741 848.566 663.917 859.982 652.779 L 847.324 607.103 C 865.179 597.702 882.171 585.637 901.087 575.81 C 911.351 583.812 925.108 598.954 935.215 608.601 C 951.657 603.128 964.531 599.86 981.263 595.973 C 984.722 581.261 988.576 566.644 992.82 552.138 z"/>
    <path transform="translate(0,0)" fill="rgb(0,0,0)" d="M 992.82 552.138 C 1012.83 548.787 1035 550.344 1055.23 551.289 C 1060.48 565.848 1064.2 581.188 1068.39 596.145 C 1083.44 600.272 1098.46 604.483 1113.46 608.78 C 1124.39 597.618 1136.05 585.204 1148.44 575.829 C 1167.18 585.896 1183.11 596.004 1200.79 607.773 C 1198.44 622.28 1193.74 639.329 1189.53 653.564 C 1199.44 663.789 1209.58 673.611 1219.6 683.708 C 1234.33 680.75 1249.68 676.238 1264.21 672.192 C 1266.83 675.299 1269.52 678.951 1272.02 682.201 C 1248.95 696.118 1219.24 711.447 1197.51 725.745 C 1132.42 632.017 1004.65 606.949 908.978 669.137 C 813.304 731.325 784.342 858.271 843.577 955.801 C 902.812 1053.33 1028.81 1086.16 1128.11 1029.93 C 1227.4 973.707 1264.07 848.768 1210.9 747.801 C 1234.39 734.959 1261.84 717.72 1285.44 703.973 C 1289.01 710.852 1292.74 717.735 1296.39 724.579 C 1290.13 733.962 1271.22 751.558 1262.22 760.27 C 1267.22 774.643 1270.9 789.571 1276.07 803.693 C 1287.64 807.426 1307.69 811.022 1321.11 814.613 C 1321.14 836.145 1321.44 857.675 1322 879.2 C 1269.07 892.235 1278.62 879.084 1263.49 931.103 C 1272.89 940.563 1288.35 955.678 1295.94 966.011 C 1291.07 981.25 1274.49 1007.82 1265.11 1021.79 C 1254.48 1020.37 1229.12 1011.86 1218.75 1007.55 C 1209.1 1021.35 1201.41 1028.2 1189.4 1040.03 C 1193.24 1055.35 1198.44 1070.43 1202.29 1086.01 C 1182.72 1098.13 1166.06 1107.03 1145.68 1117.63 C 1136.69 1111.26 1121.6 1093.22 1112.72 1084.1 C 1099.34 1088.63 1079.3 1093.54 1067.81 1098.21 L 1057.2 1142.38 C 1034.9 1141.92 1015.67 1143.08 991.95 1142.08 C 988.281 1127.09 984.083 1112.27 980.441 1097.14 C 930.864 1081.8 937.033 1081.2 902.657 1117.8 C 881.785 1108.85 864.365 1098.4 846.03 1085.15 C 849.64 1070.41 854.41 1055.14 858.743 1040.52 L 830.419 1008.17 C 815.514 1011.81 797.749 1017.5 782.926 1021.87 C 773.731 1008.18 757.712 981.856 751.662 967.07 C 759.092 959.372 779.374 939.335 784.97 931.706 C 781.506 916.584 777.922 907.914 775.218 891.741 C 765.254 887.718 739.27 881.669 728.4 880.11 C 725.617 853.039 726.479 841.538 728.211 814.619 C 742.731 810.896 758.796 806.393 773.325 803.266 C 775.018 793.875 781.98 772.75 785.052 762.837 C 777.562 751.462 761.251 736.135 751.043 726.379 C 755.974 716.477 776.725 678.418 784.206 672.862 C 795.877 673.033 816.918 681.23 829.29 685.116 C 839.43 672.741 848.566 663.917 859.982 652.779 L 847.324 607.103 C 865.179 597.702 882.171 585.637 901.087 575.81 C 911.351 583.812 925.108 598.954 935.215 608.601 C 951.657 603.128 964.531 599.86 981.263 595.973 C 984.722 581.261 988.576 566.644 992.82 552.138 z"/>
    <path transform="translate(0,0)" fill="rgb(65,200,37)" d="M 866.58 751.112 C 874.902 779.368 872.836 794.872 890.255 823.395 C 918.107 868.999 957.603 890.42 1007.73 903.376 L 1021.43 905.896 L 1008.32 912.268 C 955.388 937.011 896.304 934.943 847.925 900.357 C 846.015 895.28 844.53 890.053 843.485 884.73 C 835.145 842.188 841.823 787.66 866.58 751.112 z"/>
    <path transform="translate(0,0)" fill="rgb(65,200,37)" d="M 1093.12 771.405 C 1129.3 769.168 1158.53 777.7 1188.13 798.472 C 1206.25 811.19 1208.33 818.539 1209.05 839.862 C 1210 868.33 1205.84 893.445 1193.07 919.04 C 1190.2 909.129 1187.12 899.28 1183.83 889.5 C 1163.35 838.585 1122.72 806.866 1069.95 793.235 C 1058.99 790.401 1046.55 788.914 1035.32 787.14 C 1054.97 777.597 1071.46 773.219 1093.12 771.405 z"/>
    <path transform="translate(0,0)" fill="rgb(65,200,37)" d="M 1070.26 810.588 C 1084.42 812.38 1113.51 829.357 1124.6 839.048 C 1165.47 874.748 1171.18 903.178 1175.71 953.145 C 1160.58 973.322 1150.29 982.58 1130.5 997.76 C 1119.6 1006.23 1107.8 1011.03 1095.32 1016.79 C 1129.94 956.884 1132.1 886.272 1086.12 830.922 C 1081.04 824.802 1075.52 818.368 1071.06 811.794 L 1070.26 810.588 z"/>
    <path transform="translate(0,0)" fill="rgb(31,134,18)" d="M 1082.25 852.595 C 1093.54 862.211 1099.72 899.56 1100.74 914.012 C 1103.73 956.508 1089.98 995.209 1061.84 1027.06 C 1032.75 1032.69 1013.84 1031.95 984.769 1026.83 L 958.449 1020.48 C 976.52 1013.5 996.709 1005.38 1012.54 994.306 C 1046.63 970.451 1069.94 934.113 1077.41 893.178 C 1079.87 880.136 1079.76 866.523 1082.05 853.691 L 1082.25 852.595 z"/>
    <path transform="translate(0,0)" fill="rgb(65,200,37)" d="M 1124.91 697.422 C 1152.27 694.068 1187.46 759.34 1195.86 780.341 C 1154.96 752.57 1107.01 744.587 1059.75 759.081 C 1034.28 766.817 1014.47 780.586 993.384 795.875 C 1014.16 738.816 1064.65 701.964 1124.91 697.422 z"/>
    <path transform="translate(0,0)" fill="rgb(31,134,18)" d="M 1058.07 896.748 C 1059.03 897.015 1058.41 896.767 1059.69 897.951 C 1044.86 952.198 993.502 998.524 936.855 1002.7 C 918.324 1004.07 895.186 977.709 883.421 965.724 C 873.152 953.998 867.136 944.728 860.603 930.716 C 876.634 939.366 897.559 945.164 915.533 947.453 C 953.545 952.005 991.961 943.266 1024.26 922.72 C 1034.88 915.839 1047.69 904.829 1058.07 896.748 z"/>
    <path transform="translate(0,0)" fill="rgb(65,200,37)" d="M 964.481 671.878 L 966.533 671.784 L 967.562 672.961 C 966.745 676.68 959.68 687.816 957.513 692.025 C 924.238 756.647 937.179 815.376 974.22 875.426 C 961.979 869.728 956.823 866.598 946.308 858.136 C 900.051 820.665 889.335 780.071 888.779 722.608 C 916.871 695.604 927.234 685.428 964.481 671.878 z"/>
    <path transform="translate(0,0)" fill="rgb(31,134,18)" d="M 1021.47 661.376 C 1048.56 659.724 1078.74 668.625 1103.39 679.154 C 1097 681.136 1090.62 683.187 1084.27 685.304 C 1032.92 702.679 1007.1 726.703 983.5 774.722 C 974.006 796.685 971.595 810.756 966.806 833.967 C 965.205 818.008 960.97 803.684 959.718 785.942 C 956.891 745.865 966.483 706.556 992.601 675.316 C 1001.96 664.126 1008.35 662.298 1021.47 661.376 z"/>
    <path transform="translate(0,0)" fill="rgb(7,122,182)" d="M 1236.94 606.234 C 1260.23 615.289 1281.28 626.908 1302.77 639.502 C 1405.86 699.907 1496.48 806.303 1514.44 927.109 C 1518.3 953.059 1516.9 978.621 1517.3 1004.72 C 1517.46 1021.52 1518.28 1040.97 1516.31 1057.48 C 1514.63 1072.18 1511.05 1086.59 1505.67 1100.37 C 1495.76 1125.31 1480.26 1148.54 1459.61 1165.82 C 1435.86 1185.7 1408.74 1199.35 1381.99 1214.5 C 1349 1233.18 1315.4 1251.17 1282.53 1269.97 L 1174.37 1332.29 C 1126.02 1360.66 1087.96 1389.75 1030.24 1391.12 C 975.927 1392.41 944.624 1372.6 899.553 1347.13 L 827.408 1306.03 C 810.875 1296.49 794.627 1286.46 776.887 1279.36 C 792.129 1281.03 807.711 1283.37 823.023 1283.87 C 838.767 1284.38 862.112 1281.01 876.673 1284.8 C 891.893 1288.76 908.036 1300.81 921.591 1308.89 C 943.441 1321.92 965.221 1334.52 989.569 1342.44 C 1017.37 1351.48 1048.3 1350.6 1074.5 1337.2 C 1138.36 1304.55 1219.18 1190.15 1251.95 1126.06 C 1267.1 1096.44 1277.81 1065.13 1291.51 1034.91 C 1299.09 1018.19 1308.13 1002.18 1315.9 985.564 C 1323.45 969.434 1329.73 952.544 1335.25 935.626 C 1335.04 960.34 1331.28 982.498 1327.09 1006.48 C 1313.69 1083.27 1280.68 1156.68 1233.76 1218.81 C 1215.64 1242.81 1197.46 1260.73 1176.04 1282.25 C 1193.3 1272.03 1246.07 1244.74 1256.73 1230.62 C 1323.22 1142.55 1366.3 1025.18 1359.6 914.23 C 1356.56 863.969 1344.95 823.542 1340.34 777.961 C 1371.78 851.089 1389.84 897.801 1391.61 978.411 C 1393.35 1057.88 1382.47 1107.27 1353.59 1180.59 C 1385.92 1161.6 1410.07 1154.21 1439.24 1125.58 C 1466.84 1098.5 1476.67 1064.65 1476.17 1025.65 C 1475.15 945.542 1463.33 849.433 1421 779.599 C 1409.85 761.207 1380.89 732.673 1365.32 716.972 C 1359.98 712.047 1352.95 705.182 1347.41 700.776 L 1361.7 720.903 C 1415.93 805 1441.68 885.953 1446.88 986.064 C 1449.67 1039.66 1453.49 1086.85 1402.69 1120.28 C 1414.21 1076.97 1419.83 1032.29 1419.4 987.474 C 1418.48 900.667 1393.2 815.863 1346.45 742.714 C 1324.52 707.932 1293.9 671.447 1268.84 638.331 C 1261.73 628.942 1245.86 615.123 1236.94 606.234 z"/>
    <path transform="translate(0,0)" fill="rgb(7,122,182)" d="M 844.582 1116.23 C 817.8 1104.97 791.752 1094.7 766.012 1081.07 C 675.605 1033.22 595.737 960.794 555.273 865.328 C 536.313 821.539 528.678 781.366 530.313 733.649 C 531.231 706.895 529.548 685.203 532.952 657.869 C 544.904 561.882 625.822 528.424 701.071 486.825 L 829.832 414.579 C 854.537 400.631 879.156 386.531 903.688 372.28 C 920.949 362.461 940.748 350.748 959.095 343.799 C 1000.33 328.183 1055.84 327.479 1096.27 346.366 C 1141.7 367.593 1184.9 396.089 1229.06 419.93 C 1235.02 423.148 1241.18 426.536 1247 430.019 C 1216.48 425.69 1182.7 431.161 1154.15 424.697 C 1143.02 422.178 1113.54 403.455 1102.44 397.08 C 1088.3 389.052 1073.36 382.514 1057.87 377.57 C 1010.93 363.056 980.404 375.645 942.344 404.575 C 880.699 451.43 835.835 517.041 799.085 584.367 C 796.375 589.332 793.658 594.37 791.032 599.385 C 775.488 636.563 754.212 669.562 735.907 705.285 C 728.019 720.302 722.483 736.702 714.504 751.64 C 725.443 624.796 781.833 523.475 873.654 437.186 C 858.266 446.719 810.595 469.421 800.957 479.675 C 752.983 530.707 717.644 605.668 700.56 672.945 C 682.345 744.684 687.201 814.444 704.378 885.523 C 708.345 901.936 709.449 920.282 714.269 936.583 C 653.974 826.552 640.094 712.103 674.897 590.753 C 677.956 580.086 688.132 550.499 692.927 541.196 C 646.504 565.083 596.888 589.092 579.726 642.676 C 558.629 708.547 585.966 853.955 618.253 915.267 C 633.422 944.075 667.653 982.401 693.548 1002.14 C 698.578 1006.47 703.833 1010.43 709.092 1014.48 L 697.93 1000.1 C 644.13 927.042 614.903 850.738 604.578 760.577 C 601.155 730.688 597.461 701.19 602.042 671.085 C 606.02 644.941 620.341 613.494 644.487 600.453 C 613.551 721.844 629.137 838.166 692.112 947.165 C 725.041 1004.16 769.709 1045.24 815.85 1090.9 C 825.369 1100.32 835.869 1106.39 844.582 1116.23 z"/>
    <path transform="translate(0,0)" fill="rgb(7,122,182)" d="M 528.856 873.659 C 540.236 897.288 560.304 925.536 570.509 949.939 C 573.343 956.715 571.704 984.45 571.86 994.13 C 572.22 1016.46 571.269 1039.57 575.782 1061.82 C 582.393 1097.08 595.835 1119.52 625.523 1139.94 C 651.34 1157.7 676.699 1166.33 704.935 1177.36 C 800.995 1214.87 901.371 1222.34 1001.2 1195.32 C 1024.6 1189.27 1046.69 1179.49 1069.25 1171.07 C 1082.37 1166.18 1098.79 1159.36 1112.51 1157.23 L 1149.54 1144.36 C 1141.53 1149.69 1129.54 1159.07 1122.07 1163.38 C 1110.16 1172.81 1087.37 1186.05 1073.86 1194.23 C 1003.25 1237.01 924.74 1255.8 842.406 1256.56 C 800.858 1256.94 747.574 1251.61 708.503 1236.2 C 690.106 1228.19 673.284 1216.9 655.496 1207.75 C 621.09 1190.06 587.183 1169.44 563.469 1138.1 C 554.36 1126.06 544.207 1109.21 539.671 1094.72 C 525.948 1050.91 531.278 1003.31 530.129 957.994 C 529.467 929.849 529.241 901.749 528.856 873.659 z"/>
    <path transform="translate(0,0)" fill="rgb(22,116,168)" d="M 1112.51 1157.23 L 1149.54 1144.36 C 1141.53 1149.69 1129.54 1159.07 1122.07 1163.38 L 1122.46 1161.36 C 1125.05 1159.36 1126.63 1158.53 1128.02 1155.57 C 1126.52 1154.92 1116.62 1157.45 1112.51 1157.23 z"/>
    <path transform="translate(0,0)" fill="rgb(5,161,234)" d="M 1189.55 452.439 C 1191.48 452.046 1201.86 451.894 1204.23 451.897 C 1243.21 451.954 1292.61 459.862 1328.3 475.47 C 1349.29 485.009 1369.26 498.391 1389.72 508.762 C 1438.58 533.521 1494.79 574.794 1510.13 630.087 C 1520.63 667.956 1519.21 723.381 1519.08 763.127 L 1519.12 844.674 C 1513.78 834.686 1509.41 823.139 1504.05 812.261 C 1496.56 797.068 1483.97 778.672 1477.09 763.673 C 1475.27 759.715 1476.12 737.582 1476.26 731.567 C 1477.25 686.511 1477.69 650.385 1452.85 610.762 C 1438.44 589.065 1418.83 575.22 1396.42 562.784 C 1290.72 504.154 1181.71 481.942 1062.54 505.266 C 1038.71 509.93 1012.7 520.654 987.959 526.804 C 968.022 531.759 945.321 536.111 926.197 541.743 C 941.325 529.801 970.161 513.831 987.742 504.472 C 1054.04 469.18 1115.07 457.534 1189.55 452.439 z"/>
    <path transform="translate(0,0)" fill="rgb(7,122,182)" d="M 1014.88 401.357 C 1047.8 395.122 1085.77 418.173 1111.72 435.337 C 1100.89 436.476 1083.25 440.932 1072.46 443.779 C 998.47 463.888 930.21 501.011 873.121 552.188 C 855.208 567.343 839.159 586 820.338 599.248 C 833.989 572.6 849.66 547.037 867.213 522.782 C 902.299 474.847 952.853 410.892 1014.88 401.357 z"/>
    <path transform="translate(0,0)" fill="rgb(7,122,182)" d="M 1035.52 1242.04 C 1047.89 1241.5 1112.71 1256.42 1129.4 1259.55 C 1093.53 1293.94 1068.14 1327.06 1013.08 1320.02 C 988.563 1318.66 943.822 1288.56 917.731 1277.28 C 957.899 1271.39 998.322 1258.05 1035.52 1242.04 z"/>
    <path transform="translate(0,0)" fill="rgb(5,161,234)" d="M 600.273 986.313 C 607.19 989.3 623.437 1008.24 629.662 1014.3 C 645.624 1029.82 660.815 1044.81 679.539 1057.17 C 683.171 1059.56 697.453 1069.52 698.888 1072.7 C 704.423 1084.95 707.217 1100.38 710.937 1113.53 C 715.212 1128.24 719.682 1142.89 724.346 1157.49 C 692.444 1142.73 654.777 1131.71 629.836 1106.83 C 596.389 1073.47 599.889 1029.8 600.273 986.313 z"/>
    <path transform="translate(0,0)" fill="rgb(7,122,182)" d="M 734.409 1095.24 C 742.977 1096.84 790.874 1120.86 803.406 1126.05 C 866.464 1152.17 938.877 1167.88 1007.12 1168.22 C 1001.16 1169.99 994.979 1171.33 988.92 1172.76 C 972.335 1174.92 953.145 1180.21 934.817 1182.5 C 886.193 1189.06 836.793 1186.97 788.896 1176.34 C 779.234 1174.2 763.712 1170.41 754.851 1166.67 C 747.754 1142.64 742.113 1119.73 734.409 1095.24 z"/>
    <path transform="translate(0,0)" fill="rgb(5,161,234)" d="M 1327.81 558.663 C 1352.23 567.786 1397.2 592.491 1415.61 610.15 C 1450.97 644.075 1447.05 679.156 1447.74 723.244 L 1447.83 724.697 L 1446.66 725.578 C 1440.94 723.15 1419.21 698.949 1412.59 692.631 C 1391.6 672.568 1370.49 656.503 1347.3 639.4 C 1341.97 619.329 1330.67 576.943 1327.81 558.663 z"/>
    <path transform="translate(0,0)" fill="rgb(5,161,234)" d="M 1144.7 522.451 C 1148.8 521.859 1164.49 522.118 1169.13 522.254 C 1215.73 523.621 1251.15 532.326 1295.22 545.797 C 1301.28 568.514 1307.57 594.391 1314.78 616.535 C 1298.56 608.445 1283.18 600.197 1266.7 592.41 C 1229.08 573.619 1191.6 561.534 1151.13 550.639 C 1137.06 546.852 1122.18 541.382 1108.25 537.902 C 1094.76 534.53 1079.4 531.658 1065.67 528.846 C 1092.19 526.903 1118.1 523.916 1144.7 522.451 z"/>
    <path transform="translate(0,0)" fill="rgb(7,122,182)" d="M 1237.75 1090.79 C 1238.52 1091.54 1238.06 1090.98 1238.59 1092.8 C 1228.95 1121.22 1172.85 1217.35 1149.02 1234.5 C 1130.48 1231.9 1109.48 1227.91 1090.77 1224.79 C 1085.92 1223.82 1079.8 1223 1074.83 1222.21 C 1128.19 1198.22 1198.6 1134.72 1237.75 1090.79 z"/>
    <path transform="translate(0,0)" fill="rgb(223,253,254)" fill-opacity="0.0156863" d="M 1347.41 700.776 C 1352.95 705.182 1359.98 712.047 1365.32 716.972 L 1361.7 720.903 L 1347.41 700.776 z"/>
    <path transform="translate(0,0)" fill="rgb(223,253,254)" fill-opacity="0.0313725" d="M 697.93 1000.1 L 709.092 1014.48 C 703.833 1010.43 698.578 1006.47 693.548 1002.14 L 697.93 1000.1 z"/>
  </g>
</svg>
